<?xml version="1.0" encoding="UTF-8" standalone="no"?>
<!-- Created with Inkscape (http://www.inkscape.org/) -->

<svg
   xmlns:dc="http://purl.org/dc/elements/1.1/"
   xmlns:cc="http://creativecommons.org/ns#"
   xmlns:rdf="http://www.w3.org/1999/02/22-rdf-syntax-ns#"
   xmlns:svg="http://www.w3.org/2000/svg"
   xmlns="http://www.w3.org/2000/svg"
   xmlns:sodipodi="http://sodipodi.sourceforge.net/DTD/sodipodi-0.dtd"
   xmlns:inkscape="http://www.inkscape.org/namespaces/inkscape"
   width="744.09448819"
   height="1052.3622047"
   id="svg2"
   version="1.1"
   inkscape:version="0.48.2 r9819"
   inkscape:export-filename="compassrose.png"
   inkscape:export-xdpi="90"
   inkscape:export-ydpi="90"
   sodipodi:docname="compassRose.svg">
  <defs
     id="defs4" />
  <sodipodi:namedview
     id="base"
     pagecolor="#ffffff"
     bordercolor="#666666"
     borderopacity="1.0"
     inkscape:pageopacity="0.0"
     inkscape:pageshadow="2"
     inkscape:zoom="0.7"
     inkscape:cx="508.2502"
     inkscape:cy="413.82247"
     inkscape:document-units="px"
     inkscape:current-layer="layer1"
     showgrid="false"
     inkscape:window-width="1578"
     inkscape:window-height="781"
     inkscape:window-x="-1"
     inkscape:window-y="0"
     inkscape:window-maximized="0" />
  <metadata
     id="metadata7">
    <rdf:RDF>
      <cc:Work
         rdf:about="">
        <dc:format>image/svg+xml</dc:format>
        <dc:type
           rdf:resource="http://purl.org/dc/dcmitype/StillImage" />
        <dc:title></dc:title>
      </cc:Work>
    </rdf:RDF>
  </metadata>
  <g
     inkscape:label="Layer 1"
     inkscape:groupmode="layer"
     id="layer1">
    <path
       style="fill:#000000"
       d="m 349.78571,843.98591 c -2.2,-1.23266 -4.18818,-2.36009 -4.41817,-2.5054 -0.72115,-0.45563 2.0338,-4.94206 5.08832,-8.28634 3.52641,-3.86092 4.67839,-3.21034 2.921,1.64963 -1.62924,4.50559 -0.61612,5.63233 4.99475,5.5549 5.39297,-0.0744 9.24743,-3.52442 9.24743,-8.27704 0,-3.60216 -1.68035,-5.30647 -10.66122,-10.81319 -3.36189,-2.06138 -6.03353,-4.54747 -6.75271,-6.28374 -1.55681,-3.75847 -0.51653,-12.47721 1.79973,-15.08379 2.73214,-3.07459 9.28118,-5.6753 14.35273,-5.69966 4.81693,-0.0231 13.92814,2.5879 13.92814,3.99145 0,1.14831 -10.16082,12.15911 -10.71192,11.60801 -0.24634,-0.24634 0.29577,-1.58285 1.20468,-2.97002 0.90891,-1.38717 1.50736,-3.78872 1.3299,-5.33676 -0.29901,-2.60837 -0.68148,-2.83741 -5.21886,-3.1254 -9.17053,-0.58206 -13.72233,3.07552 -11.49454,9.23637 1.01677,2.81182 2.08814,3.65656 6.56959,5.17985 7.5275,2.55867 10.2566,5.71395 10.72507,12.3999 0.45742,6.52814 -1.37841,12.13482 -5.11304,15.61537 -5.59054,5.2102 -12.06366,6.3548 -17.79088,3.14586 z m 11.38485,-60.84992 c -0.0633,-0.77917 -0.026,-2.25787 0.0831,-3.286 0.10902,-1.02813 -0.29761,-6.42813 -0.90363,-12 -2.03992,-18.75548 -4.44575,-52.58254 -3.78662,-53.24167 0.45906,-0.45906 1.8783,13.09563 2.15807,20.611 0.30514,8.1966 2.9116,34.98599 3.3603,34.53729 0.24244,-0.24244 0.30377,-15.65001 0.13629,-34.23904 -0.16749,-18.58904 -0.25577,-56.54784 -0.1962,-84.3529 l 0.10833,-50.55465 -4.17223,-1.17206 c -2.29473,-0.64464 -5.47864,-1.47363 -7.07537,-1.8422 l -2.90314,-0.67013 0.65586,6.40159 c 0.36073,3.52087 0.89006,10.67445 1.17629,15.89684 0.28624,5.22239 0.94179,14.44526 1.45678,20.49526 0.51499,6.05 1.20391,15.95 1.53093,22 0.50976,9.43074 2.59845,34.47582 3.89879,46.74981 0.2185,2.06239 -0.01,4.00145 -0.50755,4.30902 -0.49765,0.30756 -0.93826,-1.82985 -0.97913,-4.74981 -0.0409,-2.91996 -0.2234,-6.20902 -0.40561,-7.30902 -0.4447,-2.68454 -2.41587,-26.03047 -3.0396,-36 -0.60794,-9.71708 -1.0045,-14.59743 -2.3971,-29.5 -0.59105,-6.325 -1.18911,-14.5369 -1.32901,-18.24866 -0.1399,-3.71177 -0.58005,-6.74927 -0.97809,-6.75 -0.39805,-7.4e-4 -2.87305,3.44311 -5.5,7.65299 -2.62696,4.20988 -6.58491,10.39738 -8.79545,13.75 -2.21055,3.35262 -4.5634,7.33317 -5.22856,8.84567 -0.66517,1.5125 -1.7215,2.75 -2.34741,2.75 -0.73175,0 -0.90689,-0.98173 -0.4906,-2.75 0.35607,-1.5125 0.76486,-3.425 0.9084,-4.25 0.14355,-0.825 1.09603,-4.2 2.11662,-7.5 6.58317,-21.28621 7.59685,-24.7972 7.25736,-25.13669 -0.20814,-0.20814 -1.97926,0.86247 -3.93582,2.37913 -1.95657,1.51666 -6.41567,4.9092 -9.90911,7.53897 -6.47119,4.87136 -8.63428,6.64925 -21.85171,17.96044 -17.4284,14.91483 -30.40226,24.75589 -31.36608,23.79207 -0.64266,-0.64266 -0.14435,-1.8093 1.44204,-3.37612 1.33322,-1.31677 4.75415,-5.26595 7.60205,-8.77596 2.84791,-3.51001 8.92291,-10.84527 13.5,-16.30058 4.5771,-5.45531 10.57199,-12.78277 13.32199,-16.28326 18.15997,-23.11587 17.79093,-22.587 15.3478,-21.99511 -1.29129,0.31284 -7.2978,1.51888 -13.3478,2.68009 -6.05,1.16121 -13.8125,2.7037 -17.25,3.42775 -5.07184,1.0683 -6.25,1.07439 -6.25,0.0323 0,-0.70628 1.31891,-1.57382 2.9309,-1.92787 1.612,-0.35406 3.48868,-1.31581 4.1704,-2.13723 0.68172,-0.82143 2.62531,-2.12224 4.31909,-2.89071 2.62244,-1.18979 11.03846,-5.91284 18.10812,-10.16224 1.07516,-0.64625 1.72555,-1.40428 1.44531,-1.68451 -0.28023,-0.28023 -7.70148,-1.21909 -16.49167,-2.08635 -8.79018,-0.86726 -18.73403,-2.02173 -22.09745,-2.56549 -3.36344,-0.54374 -9.01829,-0.98863 -12.56637,-0.98863 -3.54807,0 -8.89619,-0.4284 -11.8847,-0.95201 -5.46869,-0.95815 -8.71033,-1.2688 -32.31694,-3.09697 -7.0858,-0.54875 -13.1608,-1.16509 -13.5,-1.36965 -0.3392,-0.20455 -3.99172,-0.67746 -8.11672,-1.0509 -4.125,-0.37345 -11.88454,-1.32058 -17.24342,-2.10473 -5.35888,-0.78416 -10.19638,-1.42574 -10.75,-1.42574 -0.55362,0 -1.00634,-0.3375 -1.00605,-0.75 2.9e-4,-0.4125 3.65773,-0.8994 8.12764,-1.082 4.46991,-0.1826 9.02127,-0.5042 10.11412,-0.71466 1.09285,-0.21046 6.54791,-0.66271 12.12236,-1.00499 5.57444,-0.34227 15.76035,-1.24223 22.63535,-1.99991 21.19958,-2.33634 31.96904,-3.37187 46,-4.42307 35.43325,-2.65465 44,-3.42589 44,-3.96119 0,-0.31831 -1.9125,-1.7903 -4.25,-3.27109 -7.27072,-4.60595 -17.26325,-12.78026 -16.97522,-13.88645 0.15112,-0.58041 -0.20609,-0.75811 -0.79381,-0.39488 -1.30222,0.80481 -4.17371,-1.39089 -3.41802,-2.61361 0.29751,-0.48138 -0.0994,-0.62953 -0.88197,-0.32922 -0.78259,0.3003 -1.69441,-0.16156 -2.02627,-1.02636 -0.72313,-1.88444 -1.6423,-2.03598 20.29912,3.34667 9.04961,2.22004 16.55946,3.9308 16.68856,3.8017 0.1291,-0.1291 -2.43782,-3.59987 -5.70426,-7.71283 -11.02524,-13.88249 -25.15308,-32.30762 -29.73391,-38.77813 -1.26267,-1.78355 -1.97803,-3.79569 -1.58967,-4.4714 0.38835,-0.67572 0.36146,-0.91859 -0.0598,-0.5397 -1.14913,1.03361 -8.76007,-8.21152 -8.12419,-9.8686 0.30058,-0.78328 0.21416,-1.22215 -0.19204,-0.97525 -0.4062,0.2469 -1.52672,-0.60276 -2.49003,-1.88813 -1.0717,-1.42999 -1.36279,-2.57726 -0.75,-2.95599 0.55081,-0.34042 1.00148,-0.14239 1.00148,0.44007 0,0.58246 0.51092,1.05902 1.13537,1.05902 0.62445,0 4.97362,3.4875 9.66481,7.75 4.69119,4.2625 14.19278,12.46282 21.11463,18.22294 6.92186,5.76012 13.03519,10.96615 13.58519,11.56896 2.01582,2.20938 14.24122,12.4581 14.8609,12.4581 1.02863,0 0.74286,-2.61844 -0.78742,-7.21505 -0.78459,-2.35672 -1.64396,-5.63495 -1.90972,-7.28495 -0.26575,-1.65 -1.19882,-5.68204 -2.07347,-8.9601 -2.95713,-11.08276 -1.92164,-12.21421 3.65624,-3.99508 2.68981,3.96349 3.37522,5.6631 2.43006,6.02579 -0.98561,0.37821 -0.48233,2.1921 2.0025,7.21728 1.82543,3.69166 3.32109,7.38711 3.32368,8.21211 0.003,0.825 0.89641,2.9625 1.98627,4.75 1.08986,1.7875 1.75162,3.25 1.47058,3.25 -0.28104,0 0.22102,1.41553 1.11568,3.14562 1.25401,2.42499 1.82912,2.8259 2.51037,1.75 2.10978,-3.33195 0.8014,-7.2279 -5.71419,-17.01509 -3.64569,-5.47625 -6.41656,-10.16879 -6.15748,-10.42786 0.25907,-0.25908 3.07194,3.35809 6.25081,8.03814 3.17887,4.68006 6.14716,8.50919 6.5962,8.50919 0.44904,0 1.0369,-1.9125 1.30635,-4.25 1.14659,-9.94695 2.97932,-31.78035 3.21076,-38.25 0.13772,-3.85 1.18818,-16.45 2.33435,-28 4.72162,-47.57989 6.35189,-65.7329 7.13971,-79.5 1.2441,-21.74087 2.3674,-29.47676 4.12267,-28.39194 0.52882,0.32683 0.7412,1.16832 0.47196,1.86996 -0.26925,0.70165 -0.0883,3.06146 0.40207,5.24402 0.75288,3.35082 1.93297,16.04154 4.39631,47.27796 0.23856,3.025 0.70315,10.675 1.03243,17 1.0812,20.76822 2.22657,32.44714 4.14353,42.25 0.29577,1.5125 0.13309,2.75 -0.36152,2.75 -1.7347,0 -4.5101,-25.75202 -5.71201,-53 -0.61522,-13.94739 -3.53996,-49.32567 -4.12624,-49.91196 -0.39791,-0.3979 -0.81899,5.47701 -0.51802,7.2273 0.44776,2.60392 0.0585,105.62048 -0.50891,134.69729 l -0.67523,34.59911 4.89039,0.21774 c 2.68971,0.11975 6.14232,0.71768 7.67245,1.32873 1.53014,0.61105 3.03934,0.85372 3.35379,0.53928 0.31444,-0.31445 0.0666,-5.21252 -0.55079,-10.8846 -2.86262,-26.30003 -4.99622,-59.68279 -3.98261,-62.31289 0.72581,-1.88332 1.11574,2.21305 1.42783,15 0.0897,3.67595 0.73426,12.40331 2.0774,28.12894 0.28792,3.37092 0.83702,8.32082 1.22023,10.99978 l 0.69674,4.87084 9.7238,-13.99978 c 5.34808,-7.69988 9.89343,-14.44978 10.10077,-14.99978 0.20733,-0.55 0.75904,-0.64203 1.22602,-0.20452 0.46698,0.43751 0.33935,1.61164 -0.28362,2.60917 -0.62297,0.99754 -2.54868,8.28957 -4.27936,16.20452 -1.73068,7.91496 -3.33629,14.9767 -3.56802,15.69277 -0.26299,0.81265 0.0441,1.02687 0.81721,0.57 2.43351,-1.4381 18.30304,-13.77284 21.73855,-16.89647 4.88701,-4.44337 23.29943,-18.36305 30.5,-23.05781 3.3,-2.1516 6.23416,-4.22262 6.52035,-4.60227 0.66374,-0.88047 6.14538,-2.98299 6.59776,-2.53061 0.18741,0.18741 -1.50071,2.3375 -3.75138,4.77798 -2.25067,2.44048 -6.47317,7.58724 -9.38334,11.43724 -2.91016,3.85 -7.37478,9.25 -9.92136,12 -2.54659,2.75 -6.97733,7.88023 -9.8461,11.40052 -2.86876,3.52029 -8.25343,9.68431 -11.96593,13.69782 -6.70073,7.24404 -8.44521,10.33853 -5,8.86938 0.9625,-0.41044 5.8,-1.84271 10.75,-3.18283 4.95,-1.34011 11.28955,-3.07744 14.08789,-3.86073 5.86974,-1.64301 9.41211,-1.82801 9.41211,-0.49155 0,0.51294 -0.89734,1.21742 -1.99408,1.56551 -1.09674,0.34809 -2.55924,1.19348 -3.25,1.87863 -0.69076,0.68515 -4.18092,2.84515 -7.75592,4.79999 -12.17131,6.6554 -19.98147,11.322 -19.99074,11.94457 -0.0104,0.69653 14.31546,2.51703 26.49074,3.3664 4.4,0.30695 10.025,0.7585 12.5,1.00344 2.475,0.24494 6.75,0.65732 9.5,0.91641 2.75,0.25908 7.925,0.91406 11.5,1.45551 3.575,0.54144 11.675,1.27406 18,1.62804 6.325,0.35398 12.5194,0.8888 13.76533,1.1885 1.24593,0.29969 4.84593,0.71221 8,0.91671 3.15407,0.20449 7.75967,0.60819 10.23467,0.89711 2.475,0.28891 12.15,1.26119 21.5,2.1606 17.63664,1.69655 23.75524,3.34597 12.41199,3.34597 -3.5684,0 -11.8709,0.70965 -18.45,1.577 -6.57909,0.86736 -14.21199,1.73217 -16.96199,1.9218 -5.50069,0.37932 -21.61397,2.17556 -31,3.45574 -3.3,0.45009 -8.025,0.87937 -10.5,0.95395 -2.475,0.0746 -8.775,0.55802 -14,1.07431 -5.225,0.5163 -12.425,1.19398 -16,1.50597 -3.575,0.31198 -11.45,1.05701 -17.5,1.6556 -6.05,0.5986 -12.0125,1.09225 -13.25,1.097 -1.2375,0.005 -2.25,0.33583 -2.25,0.73573 0,0.39991 5.0625,4.26069 11.25,8.57951 6.1875,4.31883 13.05,9.16393 15.25,10.76689 3.97489,2.89618 3.98117,2.91121 1,2.39448 -3.04441,-0.52768 -22.81543,-5.64618 -29.84377,-7.72621 -2.11408,-0.62566 -4.00255,-0.97878 -4.19661,-0.78472 -0.19406,0.19406 5.2702,7.76436 12.14281,16.82289 6.87261,9.05854 14.61108,19.35753 17.19661,22.88667 2.58553,3.52914 7.07389,9.15414 9.97413,12.5 6.88383,7.94153 10.68814,13.45541 9.85703,14.28653 -0.3668,0.3668 -2.34615,-0.93199 -4.39856,-2.8862 -2.0524,-1.9542 -9.13164,-7.84422 -15.73164,-13.08892 -6.6,-5.2447 -16.275,-12.93561 -21.5,-17.09092 -5.225,-4.15531 -10.79407,-8.69855 -12.3757,-10.0961 -1.58164,-1.39755 -3.15664,-2.55352 -3.5,-2.56882 -0.34337,-0.0153 -2.39196,-1.3653 -4.55244,-3 -2.16045,-1.6347 -4.23754,-2.97218 -4.61574,-2.97218 -0.70204,0 4.35539,23.46652 6.03446,28 1.23476,3.33381 2.05768,12 1.13949,12 -0.40054,0 -1.29608,-1.57028 -1.99008,-3.4895 -0.69401,-1.91923 -1.79691,-4.07726 -2.45089,-4.79563 -1.25141,-1.3746 -2.4699,-3.52586 -8.90106,-15.71487 -3.70895,-7.02959 -5.66122,-9.99956 -5.88317,-8.95 -0.0523,0.2475 -0.27584,4.05 -0.49666,8.45 -0.22082,4.4 -0.835,10.25 -1.36484,13 -0.52985,2.75 -1.22068,8.825 -1.5352,13.5 -0.31451,4.675 -0.9877,13.45 -1.49598,19.5 -0.50828,6.05 -1.19682,15.57387 -1.5301,21.16415 -0.33328,5.59028 -0.79956,11.66528 -1.03617,13.5 -0.23661,1.83472 -0.89553,6.93585 -1.46427,11.33585 -0.56875,4.4 -1.27608,11.375 -1.57185,15.5 -0.29578,4.125 -0.98161,11.55 -1.52408,16.5 -0.54247,4.95 -1.41108,14.175 -1.93023,20.5 -0.51916,6.325 -1.16833,13.25931 -1.4426,15.40958 -0.51498,4.03732 -1.42548,5.99873 -1.62801,3.50709 z M 282.67045,639.32682 c -0.54911,-0.64066 -3.32636,1.99319 -5.59244,5.30369 -1.81706,2.65452 -1.5489,2.52641 1.90726,-0.91119 2.21188,-2.2 3.87021,-4.17663 3.68518,-4.3925 z m 152.40811,-4.8575 c -4.15469,-4.2625 -15.85875,-16.26571 -26.00902,-26.67381 l -18.45503,-18.92381 -3.66437,2.92381 c -2.01541,1.6081 -3.66438,3.15817 -3.6644,3.44461 -2e-5,0.28645 5.51247,4.77067 12.24997,9.96494 6.7375,5.19427 15.3578,12.09797 19.15621,15.34155 3.79842,3.24357 9.19842,7.39795 12,9.23194 2.80159,1.834 7.3408,5.38344 10.08714,7.88765 2.74634,2.50422 5.18688,4.55312 5.42341,4.55312 0.23654,0 -2.96922,-3.4875 -7.12391,-7.75 z m -103.58674,-43.09256 4.7061,-4.25405 -2.7061,-3.91374 c -1.48836,-2.15256 -3.0492,-3.93083 -3.46853,-3.9517 -0.41933,-0.0209 -2.3723,2.47869 -4.33992,5.55459 -1.96763,3.07589 -5.90602,8.36339 -8.75198,11.75 -2.84596,3.3866 -6.73228,8.18246 -8.63626,10.65746 -2.97694,3.86975 -11.92447,14.5174 -19.32757,23 -2.43957,2.7953 -4.59268,6.13496 -4.64641,7.20698 -0.0195,0.38884 9.52706,-8.85608 21.21456,-20.54426 11.6875,-11.68818 23.36775,-23.16555 25.95611,-25.50528 z m 2.63363,29.09256 c 2.20587,-5.0875 3.81548,-9.25 3.57692,-9.25 -0.23857,0 0.87476,-2.3625 2.47406,-5.25 1.59929,-2.8875 3.23956,-6.36047 3.64503,-7.71771 0.73597,-2.46352 0.73112,-2.46267 -2.85336,0.5 -2.59408,2.14407 -4.04107,4.49415 -5.21374,8.46771 -0.89274,3.025 -2.42852,7.975 -3.41285,11 -1.84362,5.66573 -3.4037,12.68288 -2.65169,11.92708 0.23373,-0.23489 2.22976,-4.58958 4.43563,-9.67708 z m 56.80474,6.58676 c -0.83344,-1.28522 -2.68968,-5.85153 -4.12499,-10.14736 -1.4353,-4.29584 -3.23151,-9.24584 -3.99157,-11 -0.76005,-1.75417 -1.71365,-4.0894 -2.11909,-5.1894 -0.57205,-1.55201 -0.89062,-0.99414 -1.42219,2.49054 -0.6326,4.14694 -0.26783,5.25641 4.76732,14.5 2.99879,5.5052 5.92005,10.58283 6.49169,11.28363 1.71568,2.10329 2.02975,0.57761 0.39883,-1.93741 z M 368.7287,590.6756 c 2.73639,-0.41035 5.93962,-1.74879 7.67008,-3.20488 3.88351,-3.26776 3.09718,-3.89802 -1.48802,-1.19268 -5.62519,3.31894 -15.31427,3.52484 -21.92164,0.46584 -6.13778,-2.84159 -7.44661,-3.87183 -10.8297,-8.52456 -6.57958,-9.04884 -7.78933,-21.12758 -2.9594,-29.54811 2.62254,-4.57216 5.13769,-6.80388 13.2578,-11.76376 4.87321,-2.97663 14.30797,-3.71304 21.783,-1.70022 9.2704,2.49626 16.36789,15.33812 16.17191,29.26068 -0.0911,6.47157 -1.52262,9.86979 -6.0035,14.25141 -3.82711,3.74233 -4.25854,6.40627 -0.61487,3.79668 1.37975,-0.98817 3.9141,-4.20519 5.63188,-7.14892 2.55636,-4.38078 3.17432,-6.62747 3.40468,-12.37815 0.33041,-8.24846 -2.38079,-17.12872 -6.47008,-21.19209 -3.55873,-3.53617 -9.14579,-7.949 -10.47264,-8.2716 -11.09065,-2.69659 -15.52595,-2.8553 -20.45136,-0.73182 -11.43424,4.92959 -14.25469,7.39094 -19.1326,16.69663 -2.98181,5.68845 -3.16912,6.61935 -2.62262,13.03385 0.48066,5.64176 1.34212,8.2172 4.70015,14.05164 2.26139,3.92908 5.48964,8.25241 7.17389,9.60741 2.93868,2.36419 15.02338,6.214 17.3522,5.52787 0.61718,-0.18183 3.23656,-0.64769 5.82084,-1.03522 z m 57.55701,1.09142 c 0,-0.24876 -4.3875,-2.5299 -9.75,-5.06921 -5.3625,-2.53931 -10.94443,-5.26077 -12.40429,-6.04771 -3.82368,-2.06113 -4.01507,-1.83214 -1.71994,2.05781 2.08838,3.53954 3.23209,4.08612 16.87423,8.06421 4.83192,1.409 7,1.71715 7,0.9949 z m -124.92046,-4.19576 c 4.08125,-1.45644 7.64546,-2.96653 7.92046,-3.35576 0.275,-0.38923 2.1875,-1.01799 4.25,-1.39725 2.0625,-0.37926 3.75,-1.04794 3.75,-1.48596 0,-0.43802 1.81299,-1.33958 4.02886,-2.00347 2.21588,-0.66389 3.76432,-1.63512 3.44099,-2.15829 -1.01566,-1.64336 -8.5157,-1.05218 -11.31548,0.89193 -1.4599,1.01373 -6.70437,3.99953 -11.65437,6.63512 -12.60542,6.71165 -12.68421,7.25012 -0.42046,2.87368 z m 51.98306,-14.37185 c -4.01733,-3.43442 -3.53624,-5.10603 0.60879,-2.11531 1.55574,1.12249 4.0712,2.33718 5.58991,2.6993 2.23405,0.53269 2.64772,0.36242 2.16646,-0.89173 -0.32716,-0.85257 -1.90725,-1.83839 -3.5113,-2.1907 -1.60405,-0.35231 -2.91646,-1.05198 -2.91646,-1.55483 0,-1.00837 3.54241,-0.71774 4.6409,0.38074 0.38084,0.38084 1.17993,0.67747 1.77577,0.65917 0.59583,-0.0183 0.12662,-0.83275 -1.04268,-1.80989 -3.32912,-2.78202 -5.31364,-7.43273 -4.73589,-11.09856 0.38373,-2.43481 0.17544,-3.16408 -0.81087,-2.83903 -0.72997,0.24057 -1.47783,1.52716 -1.66191,2.85908 -0.18407,1.33192 -0.74657,2.84917 -1.25,3.37167 -1.46623,1.52179 -1.08524,-3.10756 0.58468,-7.10424 1.98979,-4.76225 1.89257,-5.62622 -0.48965,-4.3513 -2.46467,1.31905 -5.33668,6.66852 -4.39671,8.18942 0.40519,0.65561 0.24813,0.84873 -0.37636,0.46277 -1.62235,-1.00267 -0.71029,-8.4665 1.30696,-10.69554 0.97726,-1.07985 1.54367,-2.19654 1.25869,-2.48152 -0.63935,-0.63935 -6.80293,5.55499 -6.80293,6.83688 0,0.50974 -0.89955,0.69155 -1.999,0.40404 -2.71281,-0.70941 -3.36944,0.7163 -3.20518,6.95928 0.19706,7.49001 5.16429,16.36392 9.12849,16.30797 1.14918,-0.0162 0.92984,-0.51884 -0.81034,-1.85691 -1.62479,-1.24933 -2.01408,-2.06455 -1.22021,-2.55519 0.66095,-0.40849 2.68374,0.61222 4.67083,2.35691 1.92775,1.69259 4.27684,3.05914 5.22021,3.03679 1.24911,-0.0296 0.78112,-0.83918 -1.7222,-2.97927 z m 54.9374,1.97488 c 4.125,-0.52647 12.225,-1.38229 18,-1.90184 5.775,-0.51955 18.15,-1.65956 27.5,-2.53336 9.35,-0.8738 20.15,-1.80732 24,-2.07447 3.85,-0.26716 8.125,-0.69511 9.5,-0.95099 1.375,-0.25589 8.8,-1.13968 16.5,-1.96398 31.21234,-3.34135 35.5,-3.92117 35.5,-4.80061 0,-0.51329 -2.09237,-0.649 -4.75,-0.30809 -3.78249,0.48521 -46.65647,0.99611 -130.40745,1.55401 l -3.65745,0.0244 -0.40871,5.25 c -0.22479,2.8875 -0.76458,6.0375 -1.19954,7 -0.92076,2.03752 -0.98192,2.03294 9.42315,0.70497 z m -27,-1.0506 c 0,-1.44002 4.08276,-7.15494 4.68283,-6.55488 0.25555,0.25556 -0.25509,1.85647 -1.13477,3.55758 -1.28495,2.48481 -1.33267,3.09293 -0.24272,3.09293 2.44641,0 4.19744,-5.06574 4.12406,-11.93097 -0.0388,-3.633 -0.58764,-7.49726 -1.21959,-8.58724 -1.09157,-1.88274 -1.15459,-1.85684 -1.26098,0.51821 -0.10419,2.32603 -0.21419,2.26574 -1.58074,-0.86633 -1.74118,-3.9907 -2.89822,-3.65822 -1.35891,0.39048 0.58583,1.54084 0.71092,3.15529 0.27798,3.58767 -0.43294,0.43237 -0.85572,-0.37469 -0.93951,-1.79347 -0.15108,-2.5583 -2.55581,-5.10006 -3.16226,-3.34248 -0.17303,0.50148 -1.03435,0.63558 -1.91404,0.29801 -1.06249,-0.40771 -1.3567,-0.22099 -0.87638,0.55618 0.39769,0.64347 0.24651,1.16994 -0.33595,1.16994 -0.58246,0 -1.05902,0.6375 -1.05902,1.41667 0,0.77916 -0.53438,1.59479 -1.1875,1.8125 -0.76015,0.25338 -0.38187,1.20146 1.05115,2.63448 1.34569,1.34569 2.01694,2.93723 1.68281,3.98996 -0.30571,0.96322 0.11272,2.6277 0.92985,3.69885 1.28555,1.68519 1.62089,1.74548 2.48937,0.44754 1.50065,-2.2427 1.23875,-0.62265 -0.4145,2.56399 -1.44933,2.79359 -1.2613,4.43601 0.50784,4.43601 0.51754,0 0.94098,-0.49303 0.94098,-1.09563 z m -53.8907,-20.90437 c 0.9937,-4.125 1.82562,-7.52791 1.84871,-7.56201 0.0231,-0.0341 -3.22051,0.52288 -7.20801,1.23774 -3.9875,0.71487 -14.675,1.77574 -23.75,2.35748 -9.075,0.58175 -19.2,1.48759 -22.5,2.01299 -3.3,0.52539 -11.4,1.17654 -18,1.44699 -6.6,0.27045 -17.175,1.14744 -23.5,1.94886 -21.0499,2.66716 -34.44014,3.92788 -40.25,3.78961 -3.1625,-0.0753 -5.75,0.27211 -5.75,0.77194 0,1.33451 8.21162,1.4964 75.90129,1.4964 l 61.40128,0 z m 58.8907,-4.37756 c 0,-0.20765 -0.6853,-0.9463 -1.52289,-1.64144 -1.27335,-1.05678 -1.41968,-0.99492 -0.89301,0.37756 0.53789,1.40173 2.4159,2.38422 2.4159,1.26388 z m 22.02749,-4.36484 c 4.79968,-3.38237 18.11878,-11.2576 19.03959,-11.2576 0.51311,0 0.93292,-0.4247 0.93292,-0.94377 0,-0.94968 -4.41502,0.7389 -15.5,5.92819 -3.3,1.54485 -7.9125,3.37657 -10.25,4.07049 -4.49672,1.33491 -5.39147,2.50014 -2.5,3.25576 3.57694,0.93476 5.87084,0.64292 8.27749,-1.05307 z m -81.02749,-3.06143 c 0,-1.67922 -6.62866,-7.08755 -9.5,-7.75107 -1.65,-0.38129 -8.59462,-2.20529 -15.43249,-4.05335 -11.51801,-3.11295 -16.58198,-3.80246 -10.94674,-1.49052 1.30858,0.53686 5.97923,2.50991 10.37923,4.38455 24.88837,10.6038 25.5,10.81753 25.5,8.91039 z m 72.54602,-3.44617 c 1.4981,-1.7875 5.99169,-6.85 9.98575,-11.25 3.99407,-4.4 9.44586,-10.7 12.11509,-14 2.66923,-3.3 6.79844,-8.0934 9.17602,-10.652 5.2748,-5.67638 18.8723,-22.5944 20.37292,-25.348 0.59947,-1.1 -6.51185,5.43543 -15.80293,14.52319 -9.29108,9.08775 -23.04669,22.53294 -30.56803,29.87819 l -13.67516,13.355 2.17516,3.35943 c 1.19634,1.84769 2.47266,3.365 2.83627,3.37181 0.3636,0.007 1.88682,-1.45012 3.38491,-3.23762 z m -59.23311,-13.07405 c -15.44639,-12.14021 -19.39766,-15.36414 -23.29783,-19.00924 -2.48329,-2.32088 -9.21134,-8.03284 -14.95122,-12.69325 -5.73988,-4.6604 -12.60932,-10.45403 -15.26541,-12.87472 -2.6561,-2.42069 -5.09083,-4.13969 -5.41051,-3.82001 -0.31969,0.31968 10.62362,11.97525 24.31846,25.90126 13.69484,13.926 26.1456,26.73524 27.66836,28.46497 l 2.76865,3.14496 3.46901,-3.46901 3.46902,-3.46901 z m 46.40641,-1.70092 c 4.14348,-3.04715 4.14391,-3.04813 5.82951,-13.22771 0.20466,-1.23602 0.82031,-4.27232 1.36809,-6.74732 1.08349,-4.8954 1.35331,-8.76664 0.41819,-6 -1.08432,3.20807 -11.70461,26.56866 -12.61583,27.75 -1.71765,2.22685 0.74918,1.35114 5.00004,-1.77497 z M 281.28571,474.82631 c 0,-0.21616 -0.69837,-0.661 -1.55194,-0.98855 -0.88992,-0.34149 -1.29132,-0.17385 -0.94098,0.39301 0.58726,0.95021 2.49292,1.40545 2.49292,0.59554 z m 72,251.82107 c 0,-1.31451 -4.86013,-17.40739 -6.77338,-22.42806 -0.31439,-0.825 -0.69734,-2.58153 -0.851,-3.90341 -0.49068,-4.22114 -1.06052,-4.70849 -7.02449,-6.00756 -6.25585,-1.36265 -23.19147,-6.87975 -24.85113,-8.09572 -0.55,-0.40297 -2.65527,-1.26557 -4.67838,-1.9169 -4.32548,-1.39257 -13.94848,-7.4681 -21.76853,-13.74367 -6.89872,-5.53621 -7.68568,-6.1513 -12.4265,-9.71261 l -3.83368,-2.87987 2.85354,-2.33915 c 4.48324,-3.67506 5.78721,-3.73257 9.34191,-0.41198 4.72409,4.41296 20.12706,13.70811 29.03083,17.51908 10.6527,4.55955 32.28041,11.49179 35.85291,11.49179 3.26091,0 2.85969,-1.65245 4.61333,19 1.02883,12.11631 1.59796,17.82197 2.11966,21.25 0.36298,2.38505 0.17473,3.75 -0.51719,3.75 -0.59835,0 -1.0879,-0.70737 -1.0879,-1.57194 z m 19.88152,-33.17806 c -0.14246,-2.10415 -0.18065,-1.67952 1.10154,-12.25 0.56707,-4.675 1.50192,-13 2.07744,-18.5 0.57552,-5.5 1.26054,-11.0309 1.52227,-12.2909 0.53093,-2.55598 2.27272,-2.13526 2.32088,0.56059 0.017,0.95167 0.66688,5.33031 1.44417,9.73031 0.77729,4.4 1.73328,11.08841 2.12443,14.86314 l 0.71117,6.86315 4.15829,-0.65153 c 9.75452,-1.52835 30.39481,-9.34326 35.65829,-13.50108 1.925,-1.52063 5.075,-3.57196 7,-4.55852 1.925,-0.98655 6.03953,-3.98402 9.1434,-6.66104 l 5.64341,-4.86731 3.55542,3.55542 3.55543,3.55543 -4.06556,3.70117 c -17.91143,16.30603 -38.14311,25.93175 -64.3321,30.60757 -11.16745,1.99386 -11.47318,1.98974 -11.61848,-0.1564 z M 260.88079,647.59809 c -7.20228,-8.17597 -11.81726,-14.83202 -14.82302,-21.37877 -5.23579,-11.40391 -6.5023,-14.4201 -7.55824,-18 -0.56781,-1.925 -2.19617,-7.34555 -3.61858,-12.04567 -3.19201,-10.54745 -4.37638,-22.73218 -2.43813,-25.08321 1.23621,-1.49948 2.23817,-1.50415 12.6125,-0.0588 6.87082,0.95722 11.13308,1.98334 10.91982,2.62888 -0.35857,1.08541 -2.51622,2.33196 -8.72509,5.04075 l -3.53566,1.54253 0.64281,5.73777 c 0.75947,6.77911 3.45515,17.1029 5.47872,20.98212 0.79061,1.51561 1.44024,3.1556 1.44363,3.64444 0.0214,3.08431 14.79749,29.95212 17.78253,32.33446 1.34988,1.07732 1.19983,1.70359 -1.25783,5.25 -1.5348,2.21471 -2.84184,3.98436 -2.90454,3.93256 -0.0627,-0.0518 -1.87121,-2.08898 -4.01892,-4.52704 z m 196.00245,0.16022 -2.63984,-3.46102 4.36088,-5.78898 c 15.16962,-20.13739 21.30835,-33.32806 25.70184,-55.22717 1.15179,-5.741 2.29247,-10.75905 2.53484,-11.15122 0.24238,-0.39218 5.7291,-1.01696 12.19272,-1.38841 6.46362,-0.37144 12.53953,-0.89622 13.50203,-1.16616 0.9625,-0.26994 1.75,-0.0645 1.75,0.45656 0,0.52106 -4.1625,2.73577 -9.25,4.92158 l -9.25,3.97421 -2.29911,9.39581 c -3.55442,14.52589 -5.93604,20.96257 -12.74462,34.44419 -7.99141,15.82374 -16.8791,28.45162 -20.02467,28.45162 -0.65682,0 -2.38215,-1.55746 -3.83407,-3.46101 z m 114.40247,-66.07273 c 0,-0.44483 0.7023,-1.58481 1.56066,-2.53329 1.78201,-1.96909 3.31323,-11.49553 3.32626,-20.69415 0.005,-3.44365 0.28387,-6.70615 0.61999,-7.25 0.81019,-1.31092 -4.10129,-1.27627 -6.57265,0.0464 -2.81701,1.50762 -2.54912,-1.10892 0.3969,-3.87657 1.95378,-1.83548 3.9369,-2.29053 12.25,-2.8109 5.45536,-0.34149 10.38424,-0.98393 10.95305,-1.42765 0.99854,-0.77895 8.05713,0.33794 9.17019,1.45101 0.61989,0.61989 -2.34533,8.47893 -3.91597,10.37893 -1.80556,2.18417 -3.03037,1.35181 -2.57512,-1.75 l 0.4403,-3 -6.2018,0 c -6.14603,0 -6.20743,0.0281 -6.82681,3.125 -1.12063,5.60315 -0.94406,5.875 3.81598,5.875 2.44254,0 4.69398,0.40935 5.00319,0.90966 0.8278,1.33942 -3.00129,9.70641 -4.74898,10.37707 -2.13486,0.81922 -2.7962,-0.22948 -1.57899,-2.50386 1.29784,-2.42502 0.90482,-2.86263 -1.90987,-2.12658 -1.86342,0.4873 -2.20633,1.27748 -2.20633,5.08417 l 0,4.5072 5.52213,-0.45794 c 4.23404,-0.35112 6.17119,-1.07978 8.30472,-3.12383 2.74064,-2.6257 5.17315,-3.47958 5.17315,-1.81593 0,2.30894 -6.18807,9.0536 -9.18441,10.01051 -4.32338,1.38067 -20.81559,2.65294 -20.81559,1.60575 z m -459.30503,-9.21626 c -0.74601,-1.5125 -2.89023,-7.8125 -4.76493,-14 -3.40093,-11.22488 -3.80356,-11.78699 -8.180039,-11.42023 -2.04041,0.17099 -2.05601,0.10527 -0.77476,-3.26467 0.83934,-2.20761 1.57786,-2.5651 5.299189,-2.5651 l 4.32393,0 4.25518,12.25 c 6.15094,17.70765 6.16205,17.71536 10.934,7.59211 6.09672,-12.93364 7.40652,-17.5143 4.71246,-16.48048 -1.81163,0.69518 -1.91477,-1.23299 -0.18738,-3.50302 1.35362,-1.77884 9.03241,-2.72522 11.84685,-1.46008 1.34761,0.60578 1.48618,1.34317 0.73737,3.92372 -0.87378,3.01121 0.57013,22.47806 1.75516,23.66309 0.2739,0.2739 0.8818,-0.17325 1.35089,-0.99367 0.46909,-0.82042 3.56923,-5.99167 6.8892,-11.49167 5.69061,-9.4273 5.90951,-10.01917 3.82211,-10.33468 -3.31758,-0.50145 -4.03787,-1.69879 -2.15478,-3.58189 1.20706,-1.20706 2.57874,-1.50937 4.81429,-1.06106 6.96389,1.39653 6.95949,0.79161 0.0857,11.7711 -3.51442,5.61359 -8.07679,12.94974 -10.1386,16.30254 -3.23123,5.25445 -4.17707,6.11212 -6.85131,6.21265 -3.08981,0.11616 -3.11122,0.0808 -5.21078,-8.59601 -1.15953,-4.79196 -2.392,-10.01524 -2.73884,-11.60729 -0.34885,-1.60129 -0.99939,-2.49491 -1.45596,-2 -0.45392,0.49205 -2.96823,5.95714 -5.58734,12.14464 -4.7109,11.12927 -4.79776,11.25 -8.09361,11.25 -2.639,0 -3.6136,-0.5717 -4.688,-2.75 z m 100.93651,-19.95185 c -1.18493,-1.18494 -0.6336,-2.16271 1.61852,-2.87039 3.31178,-1.04066 15.93755,-8.7163 16.29406,-9.90572 0.16849,-0.56212 1.54209,-5.52204 3.05245,-11.02204 2.95192,-10.74948 9.66599,-26.11428 14.44942,-33.06676 1.62474,-2.36147 2.95407,-4.67215 2.95407,-5.13483 0,-0.92552 8.32032,-12.90696 12.53259,-18.04721 3.04789,-3.71934 3.5974,-3.60439 5.89273,1.23267 0.91768,1.93387 2.36115,3.51613 3.2077,3.51613 1.02702,0 -0.0915,2.0797 -3.36153,6.25 -13.27407,16.92873 -25.38261,42.58423 -27.5638,58.40201 l -1.12412,8.152 -12.04179,0.71173 c -6.62298,0.39144 -12.77011,1.09471 -13.6603,1.56281 -0.89018,0.46809 -1.90268,0.56692 -2.25,0.2196 z m 266.07988,-2.41716 c -3.18376,-0.34372 -6.03061,-0.8669 -6.32634,-1.16263 -0.29573,-0.29573 2.10967,-1.72576 5.34533,-3.17783 l 5.88301,-2.64014 -1.31427,-7.7002 c -0.72284,-4.2351 -2.05296,-9.95019 -2.95581,-12.70019 -2.84516,-8.66606 -11.2266,-24.73272 -16.63594,-31.88999 -2.86404,-3.78949 -5.62933,-7.46124 -6.1451,-8.15944 -1.13037,-1.53018 3.98451,-8.76567 5.77901,-8.17498 0.63731,0.20979 2.64463,2.3711 4.46071,4.80292 1.81608,2.43182 4.19194,5.54649 5.27969,6.92149 5.24181,6.62601 14.25763,24.39406 17.75963,35 2.54615,7.71112 6.37774,27.8366 5.55356,29.17015 -0.5846,0.94591 -6.13447,0.84971 -16.68348,-0.28916 z M 345.95491,472.21932 c -0.58743,-2.23463 -3.75568,-26.94073 -4.00032,-31.1946 -0.0567,-0.98546 -0.53087,-1.37469 -1.13317,-0.93013 -0.93448,0.68976 -4.4246,1.81699 -11.53571,3.72577 -5.15526,1.38379 -24.9317,11.28135 -32.46242,16.24654 -4.29808,2.83383 -8.1326,5.15242 -8.52115,5.15242 -0.38855,0 -1.49348,0.86965 -2.4554,1.93256 -2.00152,2.21166 -3.60085,1.85248 -8.311,-1.8665 -3.4547,-2.72771 -4.0881,-4.06606 -1.92434,-4.06606 0.72912,0 2.41662,-1.17416 3.75,-2.60925 4.05925,-4.36891 16.55466,-12.08836 30.73479,-18.98742 10.81043,-5.25961 15.45416,-6.92937 23.57394,-8.47658 5.56139,-1.05971 12.17285,-1.92675 14.69214,-1.92675 l 4.58051,0 -1.28504,8.07579 c -0.70678,4.44169 -1.54759,11.75419 -1.86847,16.25 -0.32089,4.49582 -1.16702,11.09921 -1.8803,14.67421 -1.04407,5.23291 -1.42498,6.01266 -1.95406,4 z m 96.66644,-3.05575 c -2.1096,-1.6602 -5.99454,-4.73336 -8.63319,-6.82925 -12.04529,-9.56761 -40.40058,-21.56245 -52.70245,-22.29416 l -5.5,-0.32714 -0.75664,-9.49685 c -0.97253,-12.20648 -0.57094,-29.25195 0.62427,-26.49685 0.4772,1.1 1.95985,4.925 3.29479,8.5 7.02827,18.82193 7.66763,19.80111 12.50207,19.14693 1.2386,-0.16761 10.63391,2.86704 13.49282,4.35812 1.56348,0.81545 3.34518,1.4854 3.95934,1.48879 2.07037,0.0114 11.38335,4.26444 11.38335,5.1985 0,0.50913 0.43457,0.65712 0.9657,0.32886 1.16892,-0.72244 8.15418,2.71339 9.97364,4.90571 0.71805,0.8652 1.68632,1.57309 2.15171,1.57309 1.48266,0 12.23077,7.79532 17.36452,12.59403 5.4537,5.09778 5.4267,5.24718 -1.61993,8.96357 -2.47959,1.30774 -2.93035,1.19586 -6.5,-1.61335 z M 340.53571,326.51042 c -2.66389,-0.50934 -2.61037,-0.25427 -0.81573,-3.88746 0.78885,-1.597 1.30294,-4.47864 1.14241,-6.40364 -0.16053,-1.925 -0.35595,-9.2375 -0.43428,-16.25 l -0.1424,-12.75 -2.5,0 c -1.375,0 -2.5,-0.38026 -2.5,-0.84501 0,-2.26108 4.02689,-4.04377 10.5,-4.6483 l 7,-0.65374 7.23353,8.82352 c 3.97845,4.85294 9.10901,10.8293 11.40126,13.28079 3.91095,4.18266 4.21595,4.3269 4.95052,2.34117 0.63542,-1.7177 1.28054,-14.12692 0.98533,-18.95327 -0.0468,-0.76466 -1.42212,-0.97357 -4.07064,-0.61833 -4.27496,0.57339 -5.22478,-0.6449 -2.57143,-3.29826 1.59424,-1.59424 15.57143,-2.08217 15.57143,-0.54358 0,0.48674 -1.1249,1.62205 -2.49977,2.5229 l -2.49978,1.63792 0.22846,14.91922 c 0.22205,14.50063 0.16149,14.99051 -2.15839,17.45991 -4.16164,4.42985 -5.33695,4.16776 -11.85438,-2.64351 -7.14682,-7.46903 -19.21614,-22.29788 -19.21614,-23.6097 0,-0.50976 -0.72699,-1.53019 -1.61552,-2.26761 -1.47891,-1.22738 -1.56718,-0.11725 -1.04382,13.12756 0.31444,7.95758 0.59143,15.54007 0.61552,16.84999 0.0404,2.19476 0.3564,2.33974 4.02686,1.84743 3.71249,-0.49795 3.91182,-0.40117 2.93459,1.42482 -0.57665,1.07748 -1.58152,2.12357 -2.23304,2.32465 -2.50729,0.77383 -8.28429,1.22368 -10.43459,0.81253 z"
       id="path3050"
       inkscape:connector-curvature="0"
       sodipodi:nodetypes="ssssssssssssssssssssccsssssscsscsssssccsssscssssscsssssssssssssssssscssssscssssssssssscsscsssssccsssssssssssssssscssssscsssssssssssssscsscsscssssscscssssssscssssssssssssscssssssssssssssssscsssssssssssssssssssssscsssssssssssccsscsscssssssssscscsssscssssssssscssssssssssssssssssssssssssssscsssssssssssscssssssssssssssssssssssssscssssscsssssssscssccscssssssssssssssssssssssscssssscsscssssssssssssssssssssssssscscssssscsscccssssssssssssssssssscssssssssssssssscsssscccssscssssssscssssssccscssssssscsssssscscsssssscsssssssscsssssssssscsssssssssssssssssssssssssssssssscsssssscsssscsssssscssssssssssscssssssscssssscssssssssssscssscssscsssscsssssscssss" />
  </g>
</svg>
